<?xml version="1.0" encoding="UTF-8" standalone="no"?>
<!DOCTYPE svg PUBLIC "-//W3C//DTD SVG 1.1//EN"
 "http://www.w3.org/Graphics/SVG/1.1/DTD/svg11.dtd">
<!-- Generated by graphviz version 2.43.0 (0)
 -->
<!-- Title: protodot Pages: 1 -->
<svg width="707pt" height="175pt"
 viewBox="0.00 0.00 707.00 175.00" xmlns="http://www.w3.org/2000/svg" xmlns:xlink="http://www.w3.org/1999/xlink">
<g id="graph0" class="graph" transform="scale(1 1) rotate(0) translate(4 171)">
<title>protodot</title>
<!-- Node_Ja_102 -->
<g id="node1" class="node">
<title>Node_Ja_102</title>
<g id="a_node1"><a xlink:title=".VehicleData.CategoryTwoField">
<polygon fill="#fffaf0" stroke="transparent" points="546,-4 546,-51 643,-51 643,-4 546,-4"/>
<polygon fill="#e31a1c" stroke="transparent" points="547.5,-34.5 547.5,-49.5 642.5,-49.5 642.5,-34.5 547.5,-34.5"/>
<text text-anchor="start" x="552.5" y="-40.5" font-family="Ubuntu" font-weight="bold" font-size="10.00">CategoryTwoField</text>
<text text-anchor="start" x="553.5" y="-24.5" font-family="Ubuntu" font-size="10.00">1</text>
<text text-anchor="start" x="564.5" y="-24.5" font-family="Ubuntu" font-size="10.00">timestamp</text>
<polygon fill="#a6cee3" stroke="transparent" points="614.5,-19.5 614.5,-34.5 642.5,-34.5 642.5,-19.5 614.5,-19.5"/>
<text text-anchor="start" x="616.5" y="-25.5" font-family="Ubuntu" font-style="italic" font-size="10.00">int64</text>
<text text-anchor="start" x="553.5" y="-9.5" font-family="Ubuntu" font-size="10.00">2</text>
<text text-anchor="start" x="564.5" y="-9.5" font-family="Ubuntu" font-size="10.00">value</text>
<polygon fill="#a6cee3" stroke="transparent" points="614.5,-4.5 614.5,-19.5 642.5,-19.5 642.5,-4.5 614.5,-4.5"/>
<text text-anchor="start" x="616.5" y="-10.5" font-family="Ubuntu" font-style="italic" font-size="10.00">int32</text>
<polygon fill="none" stroke="black" points="546,-4 546,-51 643,-51 643,-4 546,-4"/>
</a>
</g>
</g>
<!-- Node_Ja_100 -->
<g id="node2" class="node">
<title>Node_Ja_100</title>
<g id="a_node2"><a xlink:title=".VehicleData">
<polygon fill="#fffaf0" stroke="transparent" points="8,-95 8,-142 174,-142 174,-95 8,-95"/>
<polygon fill="#e31a1c" stroke="transparent" points="9,-125.5 9,-140.5 173,-140.5 173,-125.5 9,-125.5"/>
<text text-anchor="start" x="112" y="-131.5" font-family="Ubuntu" font-weight="bold" font-size="10.00">VehicleData</text>
<text text-anchor="start" x="11" y="-115.5" font-family="Ubuntu" font-size="10.00">[...]</text>
<text text-anchor="start" x="28" y="-115.5" font-family="Ubuntu" font-size="10.00">1</text>
<text text-anchor="start" x="39" y="-115.5" font-family="Ubuntu" font-size="10.00">category_one</text>
<polygon fill="#fb9a99" stroke="transparent" points="104,-110.5 104,-125.5 173,-125.5 173,-110.5 104,-110.5"/>
<text text-anchor="start" x="106" y="-116.5" font-family="Ubuntu" font-weight="bold" font-size="10.00">CategoryOne</text>
<text text-anchor="start" x="28" y="-100.5" font-family="Ubuntu" font-size="10.00">2</text>
<text text-anchor="start" x="39" y="-100.5" font-family="Ubuntu" font-size="10.00">category_two</text>
<polygon fill="#fb9a99" stroke="transparent" points="104,-95.5 104,-110.5 173,-110.5 173,-95.5 104,-95.5"/>
<text text-anchor="start" x="107" y="-101.5" font-family="Ubuntu" font-weight="bold" font-size="10.00">CategoryTwo</text>
<polygon fill="none" stroke="black" points="8,-95 8,-142 174,-142 174,-95 8,-95"/>
</a>
</g>
</g>
<!-- Node_Ja_103 -->
<g id="node3" class="node">
<title>Node_Ja_103</title>
<g id="a_node3"><a xlink:title=".VehicleData.CategoryOne">
<polygon fill="#fffaf0" stroke="transparent" points="252.5,-116 252.5,-163 419.5,-163 419.5,-116 252.5,-116"/>
<polygon fill="#e31a1c" stroke="transparent" points="254,-146.5 254,-161.5 419,-161.5 419,-146.5 254,-146.5"/>
<text text-anchor="start" x="352" y="-152.5" font-family="Ubuntu" font-weight="bold" font-size="10.00">CategoryOne</text>
<text text-anchor="start" x="260" y="-136.5" font-family="Ubuntu" font-size="10.00">1</text>
<text text-anchor="start" x="271" y="-136.5" font-family="Ubuntu" font-size="10.00">timestamp</text>
<polygon fill="#a6cee3" stroke="transparent" points="321,-131.5 321,-146.5 419,-146.5 419,-131.5 321,-131.5"/>
<text text-anchor="start" x="393" y="-137.5" font-family="Ubuntu" font-style="italic" font-size="10.00">int64</text>
<text text-anchor="start" x="260" y="-121.5" font-family="Ubuntu" font-size="10.00">2</text>
<text text-anchor="start" x="271" y="-121.5" font-family="Ubuntu" font-size="10.00">fields</text>
<polygon fill="#fb9a99" stroke="transparent" points="321,-116.5 321,-131.5 419,-131.5 419,-116.5 321,-116.5"/>
<text text-anchor="start" x="323" y="-122.5" font-family="Ubuntu" font-weight="bold" font-size="10.00">CategoryOneFields</text>
<polygon fill="none" stroke="black" points="252.5,-116 252.5,-163 419.5,-163 419.5,-116 252.5,-116"/>
</a>
</g>
</g>
<!-- Node_Ja_100&#45;&gt;Node_Ja_103 -->
<g id="edge3" class="edge">
<title>Node_Ja_100:e&#45;&gt;Node_Ja_103:header</title>
<g id="a_edge3"><a xlink:title="Ja_100 &#45;&#45;&gt; Ja_103">
<path fill="none" stroke="#000000" d="M174,-117.5C209.14,-117.5 213.63,-147.89 243.02,-153.59"/>
<polygon fill="#000000" stroke="#000000" points="242.72,-157.07 253,-154.5 243.36,-150.1 242.72,-157.07"/>
</a>
</g>
</g>
<!-- Node_Ja_104 -->
<g id="node4" class="node">
<title>Node_Ja_104</title>
<g id="a_node4"><a xlink:title=".VehicleData.CategoryTwo">
<polygon fill="#fffaf0" stroke="transparent" points="226,-35 226,-82 446,-82 446,-35 226,-35"/>
<polygon fill="#e31a1c" stroke="transparent" points="227,-65.5 227,-80.5 445,-80.5 445,-65.5 227,-65.5"/>
<text text-anchor="start" x="379" y="-71.5" font-family="Ubuntu" font-weight="bold" font-size="10.00">CategoryTwo</text>
<text text-anchor="start" x="229" y="-55.5" font-family="Ubuntu" font-size="10.00">[...]</text>
<text text-anchor="start" x="246" y="-55.5" font-family="Ubuntu" font-size="10.00">1</text>
<text text-anchor="start" x="257" y="-55.5" font-family="Ubuntu" font-size="10.00">IGNITION_STATE</text>
<polygon fill="#fb9a99" stroke="transparent" points="353,-50.5 353,-65.5 445,-65.5 445,-50.5 353,-50.5"/>
<text text-anchor="start" x="355" y="-56.5" font-family="Ubuntu" font-weight="bold" font-size="10.00">CategoryTwoField</text>
<text text-anchor="start" x="229" y="-40.5" font-family="Ubuntu" font-size="10.00">[...]</text>
<text text-anchor="start" x="246" y="-40.5" font-family="Ubuntu" font-size="10.00">2</text>
<text text-anchor="start" x="257" y="-40.5" font-family="Ubuntu" font-size="10.00">HEADLIGHTS_STATE</text>
<polygon fill="#fb9a99" stroke="transparent" points="353,-35.5 353,-50.5 445,-50.5 445,-35.5 353,-35.5"/>
<text text-anchor="start" x="355" y="-41.5" font-family="Ubuntu" font-weight="bold" font-size="10.00">CategoryTwoField</text>
<polygon fill="none" stroke="black" points="226,-35 226,-82 446,-82 446,-35 226,-35"/>
</a>
</g>
</g>
<!-- Node_Ja_100&#45;&gt;Node_Ja_104 -->
<g id="edge4" class="edge">
<title>Node_Ja_100:e&#45;&gt;Node_Ja_104:header</title>
<g id="a_edge4"><a xlink:title="Ja_100 &#45;&#45;&gt; Ja_104">
<path fill="none" stroke="#000000" d="M174,-102.5C196.53,-102.5 199.21,-81.47 215.85,-75.23"/>
<polygon fill="#000000" stroke="#000000" points="216.73,-78.63 226,-73.5 215.55,-71.73 216.73,-78.63"/>
</a>
</g>
</g>
<!-- Node_Ja_101 -->
<g id="node5" class="node">
<title>Node_Ja_101</title>
<g id="a_node5"><a xlink:title=".VehicleData.CategoryOneFields">
<polygon fill="#fffaf0" stroke="transparent" points="498,-77.5 498,-139.5 691,-139.5 691,-77.5 498,-77.5"/>
<polygon fill="#e31a1c" stroke="transparent" points="499.5,-123.5 499.5,-138.5 690.5,-138.5 690.5,-123.5 499.5,-123.5"/>
<text text-anchor="start" x="594.5" y="-129.5" font-family="Ubuntu" font-weight="bold" font-size="10.00">CategoryOneFields</text>
<text text-anchor="start" x="505.5" y="-113.5" font-family="Ubuntu" font-size="10.00">1</text>
<text text-anchor="start" x="516.5" y="-113.5" font-family="Ubuntu" font-size="10.00">ENV_OUTSIDE_TEMPERATURE</text>
<polygon fill="#a6cee3" stroke="transparent" points="662.5,-108.5 662.5,-123.5 690.5,-123.5 690.5,-108.5 662.5,-108.5"/>
<text text-anchor="start" x="664.5" y="-114.5" font-family="Ubuntu" font-style="italic" font-size="10.00">int32</text>
<text text-anchor="start" x="505.5" y="-98.5" font-family="Ubuntu" font-size="10.00">2</text>
<text text-anchor="start" x="516.5" y="-98.5" font-family="Ubuntu" font-size="10.00">ENGINE_RPM</text>
<polygon fill="#a6cee3" stroke="transparent" points="662.5,-93.5 662.5,-108.5 690.5,-108.5 690.5,-93.5 662.5,-93.5"/>
<text text-anchor="start" x="664.5" y="-99.5" font-family="Ubuntu" font-style="italic" font-size="10.00">int32</text>
<text text-anchor="start" x="505.5" y="-83.5" font-family="Ubuntu" font-size="10.00">3</text>
<text text-anchor="start" x="516.5" y="-83.5" font-family="Ubuntu" font-size="10.00">FUEL_LEVEL</text>
<polygon fill="#a6cee3" stroke="transparent" points="662.5,-78.5 662.5,-93.5 690.5,-93.5 690.5,-78.5 662.5,-78.5"/>
<text text-anchor="start" x="664.5" y="-84.5" font-family="Ubuntu" font-style="italic" font-size="10.00">int32</text>
<polygon fill="none" stroke="black" points="498,-77.5 498,-139.5 691,-139.5 691,-77.5 498,-77.5"/>
</a>
</g>
</g>
<!-- Node_Ja_103&#45;&gt;Node_Ja_101 -->
<g id="edge5" class="edge">
<title>Node_Ja_103:e&#45;&gt;Node_Ja_101:header</title>
<g id="a_edge5"><a xlink:title="Ja_103 &#45;&#45;&gt; Ja_101">
<path fill="none" stroke="#000000" d="M420,-123.5C451.37,-123.5 461.37,-129.9 488.23,-131.25"/>
<polygon fill="#000000" stroke="#000000" points="488.42,-134.76 498.5,-131.5 488.59,-127.76 488.42,-134.76"/>
</a>
</g>
</g>
<!-- Node_Ja_104&#45;&gt;Node_Ja_102 -->
<g id="edge1" class="edge">
<title>Node_Ja_104:e&#45;&gt;Node_Ja_102:header</title>
<g id="a_edge1"><a xlink:title="Ja_104 &#45;&#45;&gt; Ja_102">
<path fill="none" stroke="#000000" d="M446,-57.5C487.46,-57.5 499.43,-44.86 536.05,-42.79"/>
<polygon fill="#000000" stroke="#000000" points="536.6,-46.27 546.5,-42.5 536.41,-39.28 536.6,-46.27"/>
</a>
</g>
</g>
<!-- Node_Ja_104&#45;&gt;Node_Ja_102 -->
<g id="edge2" class="edge">
<title>Node_Ja_104:e&#45;&gt;Node_Ja_102:header</title>
<g id="a_edge2"><a xlink:title="Ja_104 &#45;&#45;&gt; Ja_102">
<path fill="none" stroke="#000000" d="M446,-42.5C487,-42.5 499.78,-42.5 536.15,-42.5"/>
<polygon fill="#000000" stroke="#000000" points="536.5,-46 546.5,-42.5 536.5,-39 536.5,-46"/>
</a>
</g>
</g>
</g>
</svg>
